<?xml version="1.0" encoding="UTF-8" standalone="no"?>
<!-- Created with Inkscape (http://www.inkscape.org/) -->

<svg
   width="142.89215mm"
   height="101.54936mm"
   viewBox="0 0 142.89215 101.54936"
   version="1.1"
   id="svg1378"
   inkscape:version="1.2.1 (9c6d41e410, 2022-07-14, custom)"
   sodipodi:docname="cloudy.svg"
   xmlns:inkscape="http://www.inkscape.org/namespaces/inkscape"
   xmlns:sodipodi="http://sodipodi.sourceforge.net/DTD/sodipodi-0.dtd"
   xmlns="http://www.w3.org/2000/svg"
   xmlns:svg="http://www.w3.org/2000/svg">
  <sodipodi:namedview
     id="namedview1380"
     pagecolor="#ffffff"
     bordercolor="#000000"
     borderopacity="0.25"
     inkscape:showpageshadow="2"
     inkscape:pageopacity="0.0"
     inkscape:pagecheckerboard="0"
     inkscape:deskcolor="#d1d1d1"
     inkscape:document-units="mm"
     showgrid="false"
     inkscape:zoom="0.72960859"
     inkscape:cx="200.10729"
     inkscape:cy="544.81266"
     inkscape:window-width="1920"
     inkscape:window-height="1023"
     inkscape:window-x="0"
     inkscape:window-y="29"
     inkscape:window-maximized="1"
     inkscape:current-layer="layer1" />
  <defs
     id="defs1375" />
  <g
     inkscape:label="Layer 1"
     inkscape:groupmode="layer"
     id="layer1"
     transform="translate(-52.46135,-4.9780377)">
    <path
       id="path1548"
       style="fill:#e6e6e6;stroke:#333333;stroke-width:3.65323"
       d="M 90.36631,5.0180113 90.172327,23.920688 a 16.000196,17.44934 17.573248 0 1 0.606976,-0.03525 z m 22.9963,8.2191867 -12.39011,14.46189 a 16.000196,17.44934 17.573248 0 1 0.44916,0.418407 z m -45.895676,0.266395 12.375237,15.059303 a 16.000196,17.44934 17.573248 0 1 0.461975,-0.423256 z m 58.228836,20.811441 -19.51647,3.235151 a 16.000196,17.44934 17.573248 0 1 0.0917,0.630055 z M 94.591339,27.544253 A 13.138285,14.328225 17.573248 0 0 77.740195,37.237008 13.138285,14.328225 17.573248 0 0 85.939259,54.863312 13.138285,14.328225 17.573248 0 0 102.79041,45.170537 13.138285,14.328225 17.573248 0 0 94.591339,27.544253 Z M 74.648731,37.688057 55.379458,34.723508 74.521719,38.301635 a 16.000196,17.44934 17.573248 0 1 0.127004,-0.613578 z m 29.962529,10.661891 a 16.000196,17.44934 17.573248 0 1 -0.28486,0.56703 l 17.26866,9.472246 z m -29.031871,0.797706 -15.819564,9.600749 16.071132,-9.059896 a 16.000196,17.44934 17.573248 0 1 -0.251568,-0.540853 z m 21.223686,7.521783 a 16.000196,17.44934 17.573248 0 1 -0.539354,0.26102 l 6.715309,17.264787 z m -12.553818,0.898924 -5.690762,16.76865 6.226238,-16.574882 A 16.000196,17.44934 17.573248 0 1 84.24922,57.568536 Z" />
    <path
       id="rect1434"
       style="fill:#e6e6e6;stroke:#333333;stroke-width:6.9051"
       d="m 123.90717,40.501921 a 24.650421,24.485619 0 0 0 -23.3252,16.60002 19.141256,20.784613 0 0 0 -13.542322,-6.098336 19.141256,20.784613 0 0 0 -19.141467,20.784778 19.141256,20.784613 0 0 0 0.395325,4.140316 C 61.335411,76.54296 55.9139,82.350091 55.9139,89.473092 c 0,7.535122 6.066112,13.601758 13.601237,13.601758 H 178.29919 c 7.53515,0 13.60176,-6.066636 13.60176,-13.601758 0,-7.535126 -6.06661,-13.601238 -13.60176,-13.601237 A 19.760603,22.429932 0 0 0 158.53864,53.441699 19.760603,22.429932 0 0 0 147.33881,57.396497 24.650421,24.485619 0 0 0 123.90717,40.501921 Z" />
  </g>
</svg>
