<?xml version="1.0" encoding="UTF-8" standalone="no"?>
<!-- Created with Inkscape (http://www.inkscape.org/) -->

<svg
   width="142.89215mm"
   height="69.478027mm"
   viewBox="0 0 142.89215 69.478026"
   version="1.1"
   id="svg1378"
   inkscape:version="1.2.1 (9c6d41e410, 2022-07-14, custom)"
   sodipodi:docname="overcast.svg"
   xmlns:inkscape="http://www.inkscape.org/namespaces/inkscape"
   xmlns:sodipodi="http://sodipodi.sourceforge.net/DTD/sodipodi-0.dtd"
   xmlns="http://www.w3.org/2000/svg"
   xmlns:svg="http://www.w3.org/2000/svg">
  <sodipodi:namedview
     id="namedview1380"
     pagecolor="#ffffff"
     bordercolor="#000000"
     borderopacity="0.25"
     inkscape:showpageshadow="2"
     inkscape:pageopacity="0.0"
     inkscape:pagecheckerboard="0"
     inkscape:deskcolor="#d1d1d1"
     inkscape:document-units="mm"
     showgrid="false"
     inkscape:zoom="0.72960859"
     inkscape:cx="200.10729"
     inkscape:cy="424.20005"
     inkscape:window-width="1920"
     inkscape:window-height="1023"
     inkscape:window-x="0"
     inkscape:window-y="29"
     inkscape:window-maximized="1"
     inkscape:current-layer="layer1" />
  <defs
     id="defs1375" />
  <g
     inkscape:label="Layer 1"
     inkscape:groupmode="layer"
     id="layer1"
     transform="translate(-52.46135,-37.049371)">
    <path
       id="rect1434"
       style="fill:#e6e6e6;stroke:#333333;stroke-width:6.9051"
       d="m 123.90717,40.501921 a 24.650421,24.485619 0 0 0 -23.3252,16.60002 19.141256,20.784613 0 0 0 -13.542322,-6.098336 19.141256,20.784613 0 0 0 -19.141467,20.784778 19.141256,20.784613 0 0 0 0.395325,4.140316 C 61.335411,76.54296 55.9139,82.350091 55.9139,89.473092 c 0,7.535122 6.066112,13.601758 13.601237,13.601758 H 178.29919 c 7.53515,0 13.60176,-6.066636 13.60176,-13.601758 0,-7.535126 -6.06661,-13.601238 -13.60176,-13.601237 A 19.760603,22.429932 0 0 0 158.53864,53.441699 19.760603,22.429932 0 0 0 147.33881,57.396497 24.650421,24.485619 0 0 0 123.90717,40.501921 Z" />
  </g>
</svg>
