<?xml version="1.0" encoding="UTF-8" standalone="no"?>
<!-- Created with Inkscape (http://www.inkscape.org/) -->

<svg
   width="142.89215mm"
   height="111.44153mm"
   viewBox="0 0 142.89215 111.44153"
   version="1.1"
   id="svg1378"
   inkscape:version="1.2.1 (9c6d41e410, 2022-07-14, custom)"
   sodipodi:docname="rain.svg"
   xmlns:inkscape="http://www.inkscape.org/namespaces/inkscape"
   xmlns:sodipodi="http://sodipodi.sourceforge.net/DTD/sodipodi-0.dtd"
   xmlns="http://www.w3.org/2000/svg"
   xmlns:svg="http://www.w3.org/2000/svg">
  <sodipodi:namedview
     id="namedview1380"
     pagecolor="#ffffff"
     bordercolor="#000000"
     borderopacity="0.25"
     inkscape:showpageshadow="2"
     inkscape:pageopacity="0.0"
     inkscape:pagecheckerboard="0"
     inkscape:deskcolor="#d1d1d1"
     inkscape:document-units="mm"
     showgrid="false"
     inkscape:zoom="0.83661997"
     inkscape:cx="-311.37196"
     inkscape:cy="181.0858"
     inkscape:window-width="1920"
     inkscape:window-height="1023"
     inkscape:window-x="0"
     inkscape:window-y="29"
     inkscape:window-maximized="1"
     inkscape:current-layer="layer1" />
  <defs
     id="defs1375" />
  <g
     inkscape:label="Layer 1"
     inkscape:groupmode="layer"
     id="layer1"
     transform="translate(-50.283445,-4.0499687)">
    <path
       id="rect1434"
       style="fill:#e6e6e6;stroke:#333333;stroke-width:6.9051"
       d="M 121.72927,7.5025188 A 24.650421,24.485619 0 0 0 98.404065,24.102539 19.141256,20.784613 0 0 0 84.861743,18.004203 19.141256,20.784613 0 0 0 65.720276,38.788981 a 19.141256,20.784613 0 0 0 0.395325,4.140316 c -6.958095,0.614261 -12.379606,6.421392 -12.379606,13.544393 0,7.535122 6.066112,13.601758 13.601237,13.601758 H 176.12129 c 7.53515,0 13.60176,-6.066636 13.60176,-13.601758 0,-7.535126 -6.06661,-13.601238 -13.60176,-13.601237 A 19.760603,22.429932 0 0 0 156.36074,20.442297 19.760603,22.429932 0 0 0 145.16091,24.397095 24.650421,24.485619 0 0 0 121.72927,7.5025188 Z" />
    <g
       id="g1038"
       transform="translate(5.7602074,2.5328399)">
      <path
         style="fill:#e6e6e6;stroke:#333333;stroke-width:2.40771;stroke-linecap:round;stroke-dasharray:none"
         d="M 91.540783,70.412909 111.4926,111.7548"
         id="path345" />
      <path
         style="fill:#e6e6e6;stroke:#333333;stroke-width:2.40771;stroke-linecap:round;stroke-dasharray:none"
         d="M 96.040116,69.960597 115.99194,111.30249"
         id="path347" />
      <path
         style="fill:#e6e6e6;stroke:#333333;stroke-width:2.40771;stroke-linecap:round;stroke-dasharray:none"
         d="m 108.00272,69.243479 19.95183,41.341891"
         id="path349" />
      <path
         style="fill:#e6e6e6;stroke:#333333;stroke-width:2.40771;stroke-linecap:round;stroke-dasharray:none"
         d="M 113.96407,68.981586 133.9159,110.32348"
         id="path351" />
      <path
         style="fill:#e6e6e6;stroke:#333333;stroke-width:2.40771;stroke-linecap:round;stroke-dasharray:none"
         d="m 130.57433,67.066588 19.95182,41.341892"
         id="path355" />
      <path
         style="fill:#e6e6e6;stroke:#333333;stroke-width:2.40771;stroke-linecap:round;stroke-dasharray:none"
         d="M 135.64074,69.073702 155.59257,110.4156"
         id="path357" />
      <g
         id="g460"
         transform="translate(-0.83076463,-78.739024)"
         style="stroke-width:2.40771;stroke-linecap:round;stroke-dasharray:none">
        <path
           style="fill:#e6e6e6;stroke:#333333;stroke-width:2.40771;stroke-linecap:round;stroke-dasharray:none"
           d="m 103.28567,148.65242 9.4561,19.6412 m 1.80807,3.98763 8.68766,17.71306"
           id="path458"
           sodipodi:nodetypes="cccc" />
      </g>
      <g
         id="g464"
         transform="translate(18.172067,-79.011246)"
         style="stroke-width:2.40771;stroke-linecap:round;stroke-dasharray:none">
        <path
           style="fill:#e6e6e6;stroke:#333333;stroke-width:2.40771;stroke-linecap:round;stroke-dasharray:none"
           d="m 103.28567,148.65242 9.4561,19.6412 m 1.80807,3.98763 8.68766,17.71306"
           id="path462"
           sodipodi:nodetypes="cccc" />
      </g>
      <g
         id="g456"
         transform="translate(17.897828,-79.011246)"
         style="stroke-width:2.40771;stroke-linecap:round;stroke-dasharray:none">
        <path
           style="fill:#e6e6e6;stroke:#333333;stroke-width:2.40771;stroke-linecap:round;stroke-dasharray:none"
           d="m 103.28567,148.65242 9.4561,19.6412 m 1.80807,3.98763 8.68766,17.71306"
           id="path343"
           sodipodi:nodetypes="cccc" />
      </g>
      <g
         id="g468"
         transform="translate(22.019405,-80.113729)"
         style="stroke-width:2.40771;stroke-linecap:round;stroke-dasharray:none">
        <path
           style="fill:#e6e6e6;stroke:#333333;stroke-width:2.40771;stroke-linecap:round;stroke-dasharray:none"
           d="m 103.28567,148.65242 9.4561,19.6412 m 1.80807,3.98763 8.68766,17.71306"
           id="path466"
           sodipodi:nodetypes="cccc" />
      </g>
    </g>
  </g>
</svg>
